<?xml version="1.0" standalone="no"?>
<!DOCTYPE svg PUBLIC "-//W3C//DTD SVG 20010904//EN"
 "http://www.w3.org/TR/2001/REC-SVG-20010904/DTD/svg10.dtd">
<svg version="1.0" xmlns="http://www.w3.org/2000/svg"
 width="195.000000pt" height="195.000000pt" viewBox="0 0 195.000000 195.000000"
 preserveAspectRatio="xMidYMid meet">
<metadata>
Created by potrace 1.11, written by Peter Selinger 2001-2013
</metadata>
<g transform="translate(0.000000,195.000000) scale(0.100000,-0.100000)"
fill="#000000" stroke="none">
<path d="M980 1861 c-14 -4 -26 -13 -27 -21 -1 -8 -4 -36 -8 -61 -6 -51 -51
-128 -89 -152 -19 -13 -31 -14 -66 -5 -35 9 -55 8 -119 -9 -42 -12 -105 -26
-141 -33 -227 -41 -429 -241 -502 -495 -17 -63 -22 -106 -23 -205 0 -133 10
-180 63 -285 93 -186 309 -391 447 -425 22 -6 64 -22 93 -38 41 -21 68 -27
115 -27 34 -1 72 -6 84 -13 29 -16 89 -15 149 3 43 13 53 13 92 -1 46 -15 96
-11 142 11 14 7 57 15 96 18 76 6 136 26 169 57 11 10 52 35 92 55 168 84 315
273 375 482 18 61 23 104 23 198 0 106 -3 130 -29 209 -51 157 -161 293 -283
352 -31 16 -67 38 -80 50 -14 13 -50 28 -81 34 -32 7 -75 21 -96 33 -27 14
-59 20 -107 21 l-67 1 -7 54 c-8 66 -32 149 -51 179 -13 19 -22 22 -77 21 -34
-1 -73 -4 -87 -8z m149 -93 c13 -44 25 -191 16 -217 -3 -12 -12 -21 -18 -21
-9 0 -11 25 -9 87 2 56 -1 99 -9 118 -12 28 -13 21 -19 -83 -6 -90 -11 -117
-25 -130 -17 -16 -17 -16 -11 3 12 34 20 195 9 195 -5 0 -15 -34 -21 -75 -13
-84 -35 -145 -53 -145 -6 0 -8 7 -4 18 34 90 59 252 36 238 -4 -3 -11 -27 -15
-53 -7 -51 -49 -180 -64 -195 -5 -5 -21 -4 -37 2 l-28 11 25 27 c38 40 66 102
80 176 l12 65 46 4 c25 2 53 4 62 5 11 1 20 -9 27 -30z m-356 -205 c4 -3 2
-12 -4 -20 -30 -35 65 -83 166 -83 92 0 237 40 256 71 3 6 31 13 62 16 45 5
64 2 97 -16 22 -11 57 -21 76 -21 38 0 74 -15 87 -37 5 -7 34 -26 65 -42 108
-54 209 -193 246 -337 8 -32 17 -95 20 -139 5 -79 5 -80 -4 -17 -20 142 -102
314 -187 393 -42 40 -104 79 -114 73 -5 -3 19 -37 53 -75 194 -215 239 -432
147 -697 -37 -105 -102 -230 -147 -282 -18 -22 -58 -51 -90 -66 -31 -16 -61
-34 -65 -41 -17 -27 -86 -53 -141 -53 -30 0 -61 3 -70 6 -14 5 -14 8 1 30 15
23 14 24 -6 24 -13 0 -34 -14 -48 -30 -14 -17 -43 -40 -64 -51 -35 -17 -42
-18 -72 -6 -27 12 -38 12 -72 0 -34 -11 -46 -11 -94 3 -69 20 -107 46 -115 79
-4 17 -13 25 -27 25 -19 0 -21 -4 -15 -32 3 -17 14 -40 23 -50 15 -17 15 -18
-1 -18 -9 0 -38 11 -64 24 -26 13 -73 26 -105 29 -31 3 -76 16 -99 29 -91 50
-200 229 -239 393 -31 133 -24 296 18 417 26 74 76 169 125 240 7 9 9 21 4 25
-12 11 -77 -68 -125 -151 -22 -39 -55 -114 -73 -166 -30 -88 -32 -104 -32
-225 0 -79 5 -141 12 -159 7 -16 11 -31 8 -33 -2 -3 -17 33 -32 79 -22 69 -27
101 -27 193 -1 211 79 395 236 542 78 73 147 108 247 127 41 8 86 19 100 25
29 11 74 14 83 4z"/>
<path d="M468 1393 c-38 -10 -18 -32 33 -39 35 -5 54 -13 64 -28 9 -13 18 -88
27 -206 11 -159 15 -185 30 -188 20 -4 23 15 36 235 11 195 10 193 136 193 92
0 124 9 112 29 -7 11 -398 15 -438 4z"/>
<path d="M931 1322 c0 -29 5 -63 12 -75 10 -17 12 -50 7 -137 -7 -120 0 -154
28 -148 15 3 17 21 19 143 1 77 4 169 6 205 4 57 4 59 -2 15 l-8 -50 -1 48
c-2 40 -5 47 -22 47 -16 0 -20 -7 -21 -37 l-2 -38 -7 40 -7 40 -2 -53z"/>
<path d="M1365 1265 c-31 -36 -61 -65 -66 -65 -5 0 -9 27 -9 60 0 57 -1 60
-25 60 -25 0 -25 0 -25 -97 0 -209 24 -302 43 -167 5 32 11 61 13 63 3 3 35
-25 73 -63 58 -57 69 -65 80 -52 10 12 4 26 -38 82 -28 37 -51 73 -51 80 0 7
18 42 40 76 68 108 50 120 -35 23z"/>
<path d="M715 1294 c-16 -17 -17 -31 -11 -169 7 -144 16 -187 35 -156 5 8 12
72 16 142 8 146 18 170 59 151 40 -18 36 -65 -9 -106 -19 -18 -35 -38 -35 -45
0 -7 30 -49 67 -92 52 -62 69 -77 80 -68 19 16 17 21 -27 91 -22 35 -40 70
-40 79 0 8 11 26 25 39 14 13 28 39 31 58 6 28 2 38 -19 60 -35 35 -143 45
-172 16z"/>
<path d="M1083 1268 c-55 -27 -70 -138 -26 -197 25 -32 83 -56 118 -47 34 9
32 32 -5 39 -16 4 -38 15 -49 26 -24 24 -35 88 -22 124 12 32 45 36 91 12 l30
-16 0 36 0 35 -57 -1 c-32 0 -68 -5 -80 -11z"/>
<path d="M1100 950 c-32 -20 9 -33 124 -39 64 -3 120 -11 126 -17 15 -15 28
-125 36 -296 6 -126 8 -138 25 -138 24 0 25 8 39 220 7 107 17 183 24 195 9
13 32 23 72 30 41 7 59 15 59 25 0 12 -23 16 -120 21 -191 10 -369 10 -385 -1z"/>
<path d="M963 880 c-30 -12 -35 -48 -31 -238 4 -190 6 -196 91 -196 28 0 83 6
120 13 60 12 68 16 65 35 -3 20 -8 21 -81 17 -89 -4 -133 10 -139 43 -11 56
19 80 116 94 61 9 72 35 16 39 -19 2 -59 6 -89 9 l-53 6 5 45 c2 24 10 50 16
56 7 7 52 14 102 16 85 3 90 4 87 24 -2 18 -12 23 -48 28 -106 14 -156 17
-177 9z"/>
<path d="M649 847 c-17 -38 1 -262 21 -262 10 0 18 18 25 58 l10 58 55 -56
c56 -57 70 -64 88 -42 8 9 0 26 -30 66 l-40 53 27 28 c16 17 28 40 28 55 0 44
-25 59 -103 63 -66 4 -70 3 -81 -21z m110 -31 c16 -19 2 -47 -34 -70 -25 -16
-25 -16 -25 11 0 66 29 95 59 59z"/>
<path d="M475 811 c-59 -25 -85 -123 -46 -173 50 -63 147 -54 176 16 30 72 15
129 -40 152 -38 16 -60 17 -90 5z m75 -61 c23 -23 25 -39 8 -74 -32 -71 -136
-25 -108 48 17 46 67 59 100 26z"/>
<path d="M1178 783 c-33 -4 -38 -8 -38 -29 0 -23 3 -24 64 -24 45 0 69 -5 80
-16 19 -19 21 -34 4 -34 -30 0 -91 -23 -109 -41 -23 -23 -25 -62 -3 -80 9 -7
38 -12 71 -11 46 1 58 -2 73 -21 18 -22 19 -22 27 -2 10 25 10 170 0 208 -5
19 -19 33 -42 43 -34 14 -51 15 -127 7z m110 -170 c-3 -32 -44 -46 -54 -19
-10 26 4 46 31 46 23 0 26 -4 23 -27z"/>
<path d="M910 403 c0 -5 9 -19 19 -32 17 -23 18 -27 4 -48 -20 -31 -7 -44 15
-15 17 22 17 22 30 2 7 -12 17 -18 22 -15 6 4 3 16 -6 30 -15 22 -15 26 0 41
19 18 16 39 -4 39 -8 0 -17 -11 -20 -24 l-6 -24 -17 26 c-16 25 -37 36 -37 20z"/>
<path d="M517 373 c-16 -15 -7 -49 13 -50 11 -1 20 4 20 10 0 7 4 6 10 -3 14
-22 20 -8 11 26 -7 25 -10 27 -16 10 -8 -17 -9 -17 -20 -3 -7 9 -15 14 -18 10z"/>
<path d="M607 373 c-4 -3 -7 -17 -7 -30 0 -19 5 -23 28 -22 24 0 25 1 7 9 -11
5 -14 9 -7 9 16 1 16 41 -1 41 -8 0 -17 -3 -20 -7z"/>
<path d="M682 355 c-7 -14 -12 -27 -12 -28 0 -1 11 -3 25 -3 22 -2 25 1 19 20
-10 35 -20 38 -32 11z"/>
<path d="M751 353 c-1 -28 2 -33 22 -32 15 1 17 3 5 6 -9 2 -19 16 -21 31 -4
24 -4 24 -6 -5z"/>
<path d="M857 373 c-4 -3 -7 -17 -7 -30 0 -19 5 -23 28 -22 24 0 25 1 7 9 -11
5 -14 9 -7 9 16 1 16 41 -1 41 -8 0 -17 -3 -20 -7z"/>
<path d="M1032 371 c-21 -13 -10 -46 16 -49 12 -2 22 1 22 7 0 6 -7 8 -15 5
-9 -4 -15 0 -15 10 0 9 7 16 15 16 8 0 15 5 15 10 0 12 -20 13 -38 1z"/>
<path d="M1100 350 c0 -30 14 -41 23 -17 4 10 6 10 6 0 2 -27 21 -11 21 17 0
30 -14 41 -23 18 -4 -10 -6 -10 -6 0 -2 26 -21 10 -21 -18z"/>
<path d="M1250 350 c0 -16 5 -30 10 -30 6 0 10 5 10 11 0 8 5 8 15 -1 13 -11
15 -8 15 21 0 23 -3 30 -9 20 -6 -9 -11 -10 -15 -2 -13 21 -26 11 -26 -19z"/>
<path d="M1334 365 c-10 -25 4 -47 28 -43 25 4 37 28 13 28 -9 0 -13 -4 -10
-10 3 -5 1 -10 -4 -10 -6 0 -11 7 -11 15 0 8 7 15 15 15 8 0 15 5 15 10 0 16
-40 12 -46 -5z"/>
<path d="M1410 350 c0 -24 4 -30 23 -30 18 0 19 2 7 10 -10 6 -11 10 -2 10 6
0 12 9 12 20 0 13 -7 20 -20 20 -16 0 -20 -7 -20 -30z"/>
<path d="M1183 353 c-3 -10 -7 -21 -9 -24 -2 -3 10 -6 25 -6 27 0 28 2 18 24
-12 27 -25 30 -34 6z"/>
</g>
</svg>
